<?xml version="1.0" standalone="no"?>
<!DOCTYPE svg PUBLIC "-//W3C//DTD SVG 20010904//EN"
 "http://www.w3.org/TR/2001/REC-SVG-20010904/DTD/svg10.dtd">
<svg version="1.0" xmlns="http://www.w3.org/2000/svg"
 width="1536.000000pt" height="1024.000000pt" viewBox="0 0 1536.000000 1024.000000"
 preserveAspectRatio="xMidYMid meet">

<g transform="translate(0.000000,1024.000000) scale(0.100000,-0.100000)"
fill="#000000" stroke="none">
<path d="M4410 6513 c-30 -14 -206 -87 -390 -163 -184 -76 -357 -148 -383
-160 -52 -23 -52 -25 -1 -75 11 -11 58 -67 105 -124 46 -57 105 -130 132 -162
26 -32 47 -63 47 -68 0 -25 -24 -6 -87 70 -121 145 -205 243 -255 298 -47 52
-50 53 -111 58 -50 3 -68 0 -95 -16 -76 -48 -95 -146 -43 -217 15 -22 42 -51
59 -64 18 -14 61 -47 96 -75 36 -27 67 -54 69 -60 5 -11 -39 -12 -63 -2 -8 4
-40 8 -70 9 l-55 3 -6 -215 c-5 -201 -4 -221 18 -313 22 -96 78 -227 125 -297
13 -19 35 -55 50 -80 25 -42 96 -135 159 -208 34 -38 164 -154 269 -239 148
-119 460 -313 505 -313 39 0 279 143 431 257 135 101 297 245 360 321 137 165
263 388 319 564 32 100 44 237 25 293 -7 21 -12 71 -11 112 1 50 -2 73 -10 73
-8 0 -10 -17 -7 -55 l5 -55 -17 28 c-24 38 -71 84 -106 102 -55 27 -55 28 0
80 29 28 58 50 63 50 39 0 123 114 123 167 0 77 -61 145 -142 158 -67 12 -118
-23 -242 -165 -60 -69 -143 -163 -184 -209 -74 -82 -76 -83 -85 -58 -7 21 -3
30 25 59 71 71 330 359 327 362 -2 3 -96 41 -209 86 -113 45 -307 124 -431
176 -125 52 -233 94 -240 93 -8 0 -39 -12 -69 -26z m128 -175 c8 -10 31 -20
51 -24 77 -13 77 -12 31 -59 -42 -43 -43 -45 -36 -94 4 -28 9 -58 12 -66 4
-10 -11 -7 -56 12 l-61 27 -60 -33 -60 -33 7 29 c3 15 10 46 16 68 10 39 9 40
-40 87 -27 26 -47 50 -44 53 3 3 24 5 46 5 69 0 81 8 110 68 l28 57 20 -40
c11 -22 27 -48 36 -57z m-478 -130 c0 -28 44 -58 84 -58 l41 0 -37 -36 c-40
-38 -44 -48 -28 -88 11 -31 4 -32 -45 -9 -36 17 -38 17 -77 -6 -31 -18 -40
-20 -35 -8 3 9 9 31 12 50 6 30 3 37 -30 65 l-36 32 40 0 c56 0 69 7 81 46 11
31 30 39 30 12z m884 -2 c9 -36 33 -56 67 -56 37 0 36 -6 -2 -46 -30 -31 -31
-35 -21 -73 5 -23 8 -41 5 -41 -3 0 -21 10 -40 21 -34 22 -35 22 -71 3 -21
-10 -40 -20 -44 -22 -4 -2 -3 12 3 30 14 52 11 66 -22 98 l-32 30 37 0 c49 0
70 13 86 50 15 36 26 38 34 6z m606 -114 c37 -47 29 -62 -107 -188 -71 -65
-129 -122 -131 -126 -2 -4 -26 -8 -53 -8 -42 0 -96 -17 -153 -48 -20 -11 36
58 158 193 173 192 197 213 236 207 17 -2 39 -16 50 -30z m-2026 -5 c17 -17
106 -118 197 -223 166 -190 166 -190 130 -187 -20 1 -37 7 -39 13 -2 5 -10 10
-17 10 -8 0 -15 8 -17 18 -2 9 -59 71 -128 137 -138 133 -135 122 5 -19 88
-88 144 -156 128 -156 -29 1 -369 308 -384 348 -31 80 62 124 125 59z m1051
-107 c147 -21 302 -135 369 -273 69 -141 54 -410 -30 -552 -13 -22 -24 -36
-24 -31 0 5 9 23 19 40 11 17 22 45 25 61 2 17 12 66 22 110 14 67 15 95 6
178 -15 137 -49 206 -150 307 -103 103 -154 124 -304 125 -103 0 -108 -1 -135
-27 -46 -44 -139 -96 -185 -103 -24 -4 -60 -18 -80 -32 -41 -28 -111 -113
-127 -155 -9 -24 -6 -28 27 -51 20 -13 51 -31 68 -40 31 -16 32 -18 38 -104 3
-48 9 -105 12 -126 8 -50 -23 -87 -73 -87 -18 0 -33 -5 -33 -10 0 -20 136
-146 187 -173 79 -42 168 -39 189 6 8 19 5 37 -18 93 l-28 69 73 73 c68 69 74
73 107 66 19 -3 62 -10 95 -15 65 -9 79 -20 97 -80 9 -33 8 -41 -12 -69 -13
-18 -37 -41 -54 -51 -17 -10 -25 -19 -18 -19 23 0 12 -38 -19 -64 -24 -21 -41
-26 -84 -26 -29 0 -69 7 -90 16 -36 15 -58 12 -39 -5 20 -18 80 -31 144 -31
51 0 69 -4 74 -15 3 -8 14 -15 25 -15 27 0 121 38 146 58 20 17 20 17 2 -4
-42 -50 -191 -94 -318 -94 -72 0 -196 32 -262 67 -71 38 -176 145 -215 219
-81 155 -81 350 1 494 43 77 149 180 221 215 63 31 187 63 246 64 19 0 67 -4
105 -9z m-43 -120 c83 -31 80 -28 72 -109 l-7 -72 -76 -52 c-42 -28 -83 -50
-91 -50 -9 1 -46 13 -82 28 l-66 26 -12 67 c-6 37 -14 79 -16 93 -4 22 1 30
32 48 74 44 166 51 246 21z m191 9 c12 -7 41 -27 64 -46 47 -38 73 -102 73
-180 0 -39 -3 -45 -34 -60 l-34 -16 -87 57 -86 58 5 76 c2 42 5 78 5 79 2 2
66 43 69 43 2 0 13 -5 25 -11z m684 -189 c93 -41 142 -112 151 -216 12 -155
-64 -297 -211 -392 -75 -49 -144 -75 -257 -97 -103 -21 -109 -24 -188 -93
l-63 -55 -29 22 c-34 25 -52 27 -44 6 4 -11 0 -15 -16 -15 -16 0 -20 4 -14 13
5 7 1 5 -8 -5 -9 -10 -18 -24 -21 -31 -2 -6 -7 -9 -11 -5 -14 12 26 57 77 86
29 17 63 42 76 56 20 22 33 26 76 26 40 0 56 5 71 21 16 17 16 22 4 29 -8 6
-20 10 -27 10 -23 0 -24 21 -2 58 13 20 27 40 32 43 5 4 7 11 3 17 -3 5 3 30
14 54 11 25 24 68 30 96 6 28 18 53 26 56 8 3 14 10 14 15 0 6 -7 8 -15 5 -9
-4 -15 0 -15 9 0 27 18 28 37 3 17 -21 21 -22 38 -10 10 8 15 17 11 21 -4 4
-11 2 -15 -6 -6 -9 -17 -1 -40 28 -18 23 -31 41 -28 41 2 0 26 -12 51 -26 26
-15 49 -24 52 -21 2 2 -9 10 -26 17 -30 13 -41 30 -17 30 7 0 23 -7 36 -16 16
-12 26 -13 34 -5 7 7 17 4 33 -12 12 -12 40 -35 63 -52 43 -32 50 -45 26 -45
-8 0 -15 5 -15 10 0 6 -7 10 -15 10 -20 0 -19 -16 1 -24 8 -3 13 -10 10 -15
-10 -15 28 -7 41 9 9 12 17 13 42 3 26 -9 31 -9 31 3 0 8 -6 14 -12 14 -8 0
-5 7 6 15 11 8 16 18 13 22 -4 4 -15 -4 -24 -17 -15 -21 -17 -22 -29 -5 -7 10
-20 15 -29 12 -8 -4 -15 -2 -15 3 0 5 10 11 23 13 15 3 11 5 -12 6 -28 1 -54
14 -110 57 -2 2 2 11 10 20 8 10 10 19 4 21 -5 2 -17 8 -25 13 -13 9 -13 12 2
24 10 7 16 15 14 17 -2 2 11 15 30 29 25 19 32 30 27 45 -6 20 -5 20 16 1 19
-17 21 -17 21 -3 0 19 25 23 36 5 5 -7 3 -8 -5 -4 -8 5 -14 1 -18 -12 -3 -14
-10 -19 -21 -15 -11 5 -14 2 -10 -9 5 -12 0 -14 -20 -10 -16 3 -23 1 -19 -4 5
-5 13 -10 18 -10 5 -1 12 -2 15 -3 4 0 0 -9 -7 -18 -12 -16 -12 -17 2 -6 12
10 20 9 39 -4 36 -26 61 -53 48 -53 -16 0 -48 -30 -48 -45 0 -6 12 -17 26 -23
15 -8 22 -17 18 -25 -5 -9 -4 -9 6 0 11 10 11 15 0 28 -10 12 -10 15 4 15 9 0
16 5 16 10 0 6 -7 10 -15 10 -8 0 -15 5 -15 11 0 5 8 9 18 7 9 -1 23 1 30 5 7
5 12 4 12 -2 0 -6 -5 -11 -12 -11 -6 0 -3 -8 8 -19 10 -10 22 -17 25 -15 3 2
6 -3 6 -11 0 -13 -4 -13 -25 1 -13 8 -26 13 -29 11 -7 -8 30 -47 39 -41 4 3 8
0 8 -5 0 -6 7 -11 15 -11 9 0 12 -6 9 -15 -5 -13 -8 -13 -21 0 -17 17 -29 19
-38 5 -3 -5 2 -10 11 -10 16 0 16 -1 0 -19 -10 -11 -15 -25 -11 -30 12 -21
-34 -11 -48 9 -14 20 -15 20 -19 2 -4 -13 -14 -19 -32 -19 -16 0 -34 -10 -47
-27 -13 -17 -27 -25 -36 -21 -11 4 -13 1 -9 -10 3 -9 -2 -24 -12 -34 -25 -25
-73 -54 -79 -47 -10 9 27 56 44 56 9 0 14 2 11 5 -9 9 -59 -6 -53 -15 3 -5 1
-11 -3 -14 -5 -3 -14 6 -21 21 -11 24 -9 29 23 59 19 18 38 29 42 26 4 -4 4
-1 0 6 -8 14 -18 9 -59 -28 -15 -14 -41 -32 -57 -41 l-29 -16 23 -22 c13 -13
27 -18 30 -13 3 5 -4 13 -17 16 -21 6 -21 7 -3 21 17 13 21 13 32 -3 7 -9 11
-19 9 -22 -2 -3 5 -17 15 -30 17 -22 22 -23 39 -12 25 15 34 16 26 2 -3 -5 1
-10 9 -10 9 0 16 -6 16 -14 0 -17 27 -29 35 -16 4 6 12 10 18 9 9 0 8 -2 -1
-6 -6 -2 -10 -9 -6 -14 9 -15 -13 -10 -54 11 -28 15 -45 18 -62 12 -16 -6 -20
-11 -11 -16 6 -4 18 -2 26 4 12 10 15 9 15 -5 0 -12 5 -15 16 -11 10 4 14 1
11 -6 -2 -7 -14 -13 -26 -12 -31 1 -26 -14 7 -18 64 -8 159 40 244 124 60 60
82 100 99 178 23 106 -9 195 -94 263 -35 29 -43 31 -128 33 -63 1 -89 -2 -86
-10 2 -6 10 -12 18 -12 8 -1 20 -2 27 -3 21 -2 13 -17 -10 -18 -12 -1 -29 7
-39 18 -10 12 -23 18 -29 14 -14 -9 -4 -23 32 -45 l29 -17 -25 -5 c-16 -3 -26
-1 -26 7 0 20 -34 45 -49 36 -10 -6 -10 -10 -2 -16 9 -5 9 -10 1 -20 -9 -11
-7 -12 9 -8 23 6 63 -18 53 -32 -4 -6 -16 -10 -26 -10 -11 0 -21 -6 -23 -12
-3 -7 0 -13 7 -13 6 0 8 5 4 11 -4 7 -1 10 7 7 8 -3 13 -11 11 -18 -1 -6 7
-14 18 -17 23 -6 27 -23 6 -23 -8 0 -16 -5 -18 -12 -3 -7 -10 -8 -17 -4 -10 6
-10 10 -1 16 6 4 -3 7 -20 8 -17 0 -39 7 -48 14 -15 12 -16 11 -3 -4 15 -20 9
-23 -20 -8 -10 6 -19 21 -19 33 0 12 -2 43 -5 68 -5 41 -3 48 19 62 22 15 109
48 161 61 38 9 124 -2 172 -24z m-1972 -10 c3 -5 1 -10 -4 -10 -6 0 -11 5 -11
10 0 6 2 10 4 10 3 0 8 -4 11 -10z m35 -46 c0 -16 -16 -19 -25 -4 -8 13 4 32
16 25 5 -4 9 -13 9 -21z m311 -53 c-23 -27 -53 -75 -67 -108 -52 -119 -54
-121 -78 -75 -24 46 -38 112 -27 125 5 7 11 28 13 47 3 31 7 36 43 46 22 7 66
13 98 13 l59 1 -41 -49z m575 11 c76 -31 71 -25 100 -151 l16 -74 -66 -66 -65
-65 -47 12 c-26 7 -69 22 -95 33 -45 20 -49 24 -59 73 -6 28 -10 80 -8 115 l3
65 70 42 c39 24 73 44 76 44 3 0 37 -13 75 -28z m-486 -71 c-5 -46 -13 -88
-17 -92 -5 -5 -35 -18 -67 -29 l-58 -20 5 30 c9 45 64 136 104 170 19 17 36
30 38 28 2 -2 -1 -41 -5 -87z m1504 67 c4 -18 8 -20 18 -10 14 14 28 16 28 3
0 -21 -40 -18 -61 5 -18 19 -19 24 -7 24 9 0 18 -10 22 -22z m-1904 2 c0 -5
-2 -10 -4 -10 -3 0 -8 5 -11 10 -3 6 -1 10 4 10 6 0 11 -4 11 -10z m1435 -46
c19 -26 35 -54 36 -63 0 -9 2 -23 3 -31 14 -67 -44 -232 -85 -245 -40 -13 -88
4 -105 37 -43 83 -43 96 -7 179 18 42 33 89 33 103 0 19 9 30 38 45 20 11 40
20 44 21 4 0 23 -21 43 -46z m475 -9 c0 -3 -16 3 -35 12 -27 13 -32 19 -23 30
8 11 15 8 34 -12 13 -15 24 -28 24 -30z m-1798 0 c-3 -21 5 -65 18 -105 12
-38 20 -76 16 -85 -15 -40 -91 4 -115 68 -19 48 -13 75 25 117 46 50 61 52 56
5z m1888 25 c0 -5 -4 -10 -10 -10 -5 0 -10 5 -10 10 0 6 5 10 10 10 6 0 10 -4
10 -10z m-50 -40 c0 -5 -4 -10 -10 -10 -5 0 -10 5 -10 10 0 6 5 10 10 10 6 0
10 -4 10 -10z m40 -20 c0 -5 -4 -10 -10 -10 -5 0 -10 5 -10 10 0 6 5 10 10 10
6 0 10 -4 10 -10z m0 -40 c0 -5 -4 -10 -10 -10 -5 0 -10 5 -10 10 0 6 5 10 10
10 6 0 10 -4 10 -10z m-1951 -111 l32 -44 -29 -12 c-16 -7 -42 -15 -57 -19
l-28 -7 5 69 c3 38 12 82 19 98 l14 30 6 -36 c3 -20 20 -55 38 -79z m1851 101
c0 -5 -4 -10 -10 -10 -5 0 -10 5 -10 10 0 6 5 10 10 10 6 0 10 -4 10 -10z
m-1470 -130 c18 -59 51 -129 82 -172 23 -34 11 -36 -47 -8 -65 31 -116 72
-164 130 l-44 54 59 28 c80 38 93 35 114 -32z m1575 10 c-3 -5 -11 -10 -16
-10 -6 0 -7 5 -4 10 3 6 11 10 16 10 6 0 7 -4 4 -10z m-1762 -48 c9 -16 47
-58 85 -94 56 -53 87 -72 161 -103 50 -21 95 -43 101 -50 20 -24 -121 -100
-206 -112 -41 -5 -42 -5 -83 49 -75 99 -152 318 -117 332 26 11 43 4 59 -22z
m1757 15 c-9 -7 -22 -26 -29 -44 -7 -17 -19 -34 -27 -37 -19 -7 -18 8 1 24 8
7 15 21 15 32 0 10 10 23 23 28 30 12 35 11 17 -3z m-150 -22 c-10 -12 -9 -15
4 -15 9 0 19 7 22 15 8 19 34 20 34 1 0 -14 -49 -39 -66 -34 -5 1 -19 -3 -31
-10 -37 -20 -29 9 10 36 37 26 44 28 27 7z m-1790 -48 c-16 -30 -30 -61 -30
-70 0 -9 -4 -17 -10 -17 -5 0 -10 5 -10 10 0 6 -9 30 -20 52 -11 23 -19 42
-17 43 1 1 27 9 57 18 30 8 56 16 58 16 1 1 -11 -23 -28 -52z m90 9 c0 -41 46
-202 66 -234 9 -13 13 -26 11 -29 -7 -7 -97 34 -119 54 -10 9 -18 12 -18 6 0
-11 30 -40 59 -57 10 -6 40 -23 67 -38 52 -28 54 -35 7 -17 -47 17 -129 76
-148 106 -34 51 -20 141 31 209 33 43 44 43 44 0z m1784 19 c-3 -8 -15 -17
-25 -20 -21 -7 -20 -32 0 -27 6 1 11 -3 11 -9 0 -6 -8 -8 -19 -4 -14 4 -27 -4
-47 -30 -15 -19 -29 -33 -32 -31 -3 3 1 12 7 20 9 10 9 16 1 21 -6 4 -9 14 -6
22 3 8 1 11 -4 8 -6 -3 -10 -2 -10 3 0 5 9 12 21 15 17 4 20 2 16 -12 -3 -14
0 -17 13 -14 10 3 16 12 14 21 -4 14 30 41 63 51 1 1 0 -6 -3 -14z m-159 -65
c-16 -18 -16 -20 -2 -20 10 0 17 -4 17 -10 0 -12 -20 -13 -39 -1 -17 11 3 51
26 51 14 0 14 -2 -2 -20z m45 -20 c0 -5 -4 -10 -10 -10 -5 0 -10 5 -10 10 0 6
5 10 10 10 6 0 10 -4 10 -10z m85 0 c-3 -5 -13 -10 -21 -10 -8 0 -12 5 -9 10
3 6 13 10 21 10 8 0 12 -4 9 -10z m-494 -68 c-5 -9 -19 -26 -32 -37 -19 -16
-18 -13 5 18 30 39 43 49 27 19z m-684 -174 c36 -34 29 -55 -8 -24 -17 14 -41
29 -55 32 -13 3 -24 11 -24 16 0 17 62 0 87 -24z m-36 -29 c15 -12 18 -19 8
-16 -12 4 -15 0 -11 -19 5 -28 0 -30 -36 -7 -69 43 -75 63 -18 63 20 0 44 -9
57 -21z m-108 -36 c-7 -2 -19 -2 -25 0 -7 3 -2 5 12 5 14 0 19 -2 13 -5z m986
-16 c8 -11 -1 -25 -39 -65 -28 -29 -51 -50 -51 -47 -1 3 -3 10 -4 15 -1 6 -3
16 -4 23 -2 6 -6 3 -11 -8 -7 -17 -9 -15 -9 12 -2 54 87 107 118 70z m-1002
-9 c23 1 35 -5 48 -24 11 -18 14 -29 7 -36 -11 -11 -35 -1 -27 12 3 4 -3 7
-13 6 -9 0 -16 5 -14 12 1 6 -2 12 -8 12 -5 0 -10 -6 -10 -14 0 -8 5 -18 10
-21 13 -8 13 -42 -1 -51 -6 -3 -23 5 -37 19 -15 14 -42 34 -60 45 -25 15 -30
22 -20 29 18 15 49 21 73 15 11 -3 34 -4 52 -4z m318 -16 c14 3 25 1 25 -3 0
-5 6 -9 14 -9 24 0 66 -133 66 -209 -1 -57 -13 -83 -40 -89 -18 -4 -49 -42
-50 -60 0 -7 -8 -12 -17 -10 -12 2 -18 -4 -19 -17 -1 -11 -2 -25 -3 -32 -1 -6
-11 -15 -23 -19 -12 -3 -30 -15 -41 -25 -15 -13 -29 -17 -58 -13 -25 4 -39 2
-39 -5 0 -6 -8 -11 -17 -11 -9 0 -13 3 -10 7 9 8 -49 51 -95 70 -23 9 -38 22
-38 32 0 22 -76 85 -91 76 -6 -4 -13 2 -16 14 -3 12 -9 21 -14 21 -21 0 -7 18
19 23 37 7 177 99 232 152 25 24 56 45 70 47 15 2 24 9 22 17 -2 8 9 26 24 42
25 26 28 27 50 12 13 -8 35 -13 49 -11z m469 -1 c3 -4 -4 -17 -15 -27 -21 -19
-21 -18 -8 9 13 30 15 31 23 18z m-110 -18 c19 -9 38 -23 40 -30 3 -8 2 -12
-3 -9 -4 3 -16 -3 -26 -14 -10 -11 -25 -20 -33 -20 -12 0 -12 -3 -2 -15 21
-26 3 -28 -29 -4 -36 27 -40 60 -11 89 24 24 21 24 64 3z m335 -42 c-50 -56
-59 -60 -59 -28 0 23 31 59 60 70 39 14 39 3 -1 -42z m-1089 -12 c24 -29 25
-45 4 -53 -9 -3 -12 -11 -8 -18 4 -7 -8 0 -27 15 -18 15 -49 37 -68 49 -33 21
-33 21 -11 33 31 16 85 3 110 -26z m1190 20 c13 -9 13 -11 1 -16 -8 -3 -33
-23 -56 -44 -23 -22 -49 -39 -56 -39 -25 0 -16 39 17 75 32 36 66 44 94 24z
m-1275 -60 c27 -25 42 -46 38 -55 -3 -9 -12 -13 -22 -9 -9 4 -22 8 -28 9 -7 1
-24 13 -38 26 -35 33 -32 12 4 -28 20 -22 36 -30 48 -26 15 5 16 4 3 -5 -21
-15 -25 -14 -58 14 -47 39 -51 115 -6 115 8 0 34 -18 59 -41z m871 3 c-22 -23
-29 -10 -9 18 11 16 18 19 21 11 2 -7 -3 -20 -12 -29z m448 12 c7 -18 -1 -37
-13 -29 -5 2 -17 -5 -27 -18 -10 -12 -12 -16 -4 -9 20 17 35 15 20 -3 -14 -17
-65 -20 -75 -5 -8 13 24 60 49 70 32 13 43 12 50 -6z m-379 -166 c6 -13 20
-24 33 -26 21 -3 32 -22 12 -22 -5 0 -24 -13 -42 -28 l-33 -29 -39 39 -40 38
32 0 c25 0 35 5 42 25 12 31 22 32 35 3z m-310 -88 c11 -21 23 -30 40 -30 30
0 32 -11 4 -36 -15 -13 -20 -28 -17 -51 5 -38 5 -38 -28 -16 -24 15 -27 15
-54 -1 l-29 -16 6 35 c5 30 2 39 -16 51 -31 22 -26 34 15 34 30 0 37 4 45 30
6 17 13 30 15 30 2 0 10 -13 19 -30z"/>
<path d="M5439 6003 c-13 -16 -12 -17 4 -4 9 7 17 15 17 17 0 8 -8 3 -21 -13z"/>
<path d="M5270 5835 c-30 -30 -50 -55 -45 -54 10 1 112 109 104 109 -3 0 -29
-25 -59 -55z"/>
<path d="M3469 6032 c5 -9 19 -26 32 -37 19 -16 18 -13 -5 18 -30 39 -43 49
-27 19z"/>
<path d="M4570 5100 c-20 -6 -21 -8 -5 -8 11 0 29 3 40 8 25 11 -1 11 -35 0z"/>
<path d="M5070 5560 c0 -5 5 -10 11 -10 5 0 7 5 4 10 -3 6 -8 10 -11 10 -2 0
-4 -4 -4 -10z"/>
<path d="M5236 5544 c-7 -18 31 -57 46 -48 4 3 -2 14 -14 24 -13 11 -17 19
-10 20 7 0 10 5 7 10 -9 15 -22 12 -29 -6z"/>
<path d="M5095 5530 c3 -5 8 -10 11 -10 2 0 4 5 4 10 0 6 -5 10 -11 10 -5 0
-7 -4 -4 -10z"/>
<path d="M5308 5513 c7 -3 16 -2 19 1 4 3 -2 6 -13 5 -11 0 -14 -3 -6 -6z"/>
<path d="M5326 5488 c4 -7 3 -8 -4 -4 -18 11 -34 -3 -20 -18 10 -10 15 -10 29
3 18 15 17 31 -2 31 -6 0 -7 -5 -3 -12z"/>
<path d="M5250 5470 c-9 -6 -7 -11 8 -19 11 -6 28 -18 37 -27 9 -9 19 -13 22
-10 11 11 -54 64 -67 56z"/>
<path d="M5206 5417 c3 -10 -1 -17 -13 -20 -11 -3 -7 -5 11 -6 l29 -1 -22 -19
-22 -19 27 -21 c14 -11 31 -18 37 -14 5 3 -3 13 -18 21 -22 11 -25 16 -14 23
8 5 21 6 31 3 9 -2 19 0 23 6 3 5 -1 10 -9 10 -9 0 -16 5 -16 10 0 6 -7 10
-15 10 -8 0 -14 5 -12 11 1 6 -4 14 -11 16 -7 3 -10 -1 -6 -10z"/>
<path d="M5153 5373 c-15 -5 -18 -33 -4 -33 8 0 25 30 19 35 -2 1 -9 0 -15 -2z"/>
<path d="M5077 5335 c-16 -11 -16 -14 2 -34 23 -26 35 -28 19 -1 -15 24 -4 37
17 20 8 -7 15 -8 15 -4 0 5 -8 14 -18 20 -14 9 -22 9 -35 -1z"/>
<path d="M5203 5296 c18 -18 34 -30 37 -26 3 3 13 9 23 13 18 7 24 27 7 27 -5
0 -10 -4 -10 -10 0 -17 -36 -11 -55 10 -10 11 -22 20 -26 20 -5 0 6 -15 24
-34z"/>
<path d="M5060 5276 c0 -9 5 -16 10 -16 6 0 10 4 10 9 0 6 -4 13 -10 16 -5 3
-10 -1 -10 -9z"/>
<path d="M5170 5265 c-11 -13 -10 -14 4 -9 9 3 16 10 16 15 0 13 -6 11 -20 -6z"/>
<path d="M5016 5175 c-3 -8 -1 -15 4 -15 13 0 22 18 11 24 -5 3 -11 -1 -15 -9z"/>
<path d="M5080 5144 c-8 -8 -21 -14 -29 -12 -9 2 -24 -4 -33 -14 -17 -17 -16
-18 8 -24 14 -4 28 -4 31 0 4 3 -1 6 -10 6 -9 0 -17 5 -17 11 0 6 9 8 20 4 11
-3 20 -2 20 4 0 5 12 11 27 13 23 3 24 5 11 16 -13 10 -18 9 -28 -4z"/>
<path d="M5092 5103 c2 -14 -5 -19 -29 -21 -18 -2 -33 -7 -33 -13 0 -25 72 7
76 34 1 9 -2 17 -7 17 -6 0 -9 -8 -7 -17z"/>
<path d="M5105 5066 c-13 -9 -15 -15 -7 -20 7 -4 12 -3 12 3 0 5 8 11 18 13
11 2 13 6 6 10 -6 4 -19 1 -29 -6z"/>
<path d="M5133 5043 c9 -2 25 -2 35 0 9 3 1 5 -18 5 -19 0 -27 -2 -17 -5z"/>
<path d="M3935 5013 c0 -25 -3 -32 -13 -28 -7 3 -20 -2 -28 -10 -14 -13 -13
-15 3 -17 56 -4 123 27 123 58 0 8 -4 12 -10 9 -5 -3 -10 -2 -10 3 0 6 -15 12
-33 14 -32 3 -33 2 -32 -29z"/>
<path d="M4226 4511 c-10 -11 -16 -28 -13 -38 4 -17 5 -17 6 1 0 11 8 28 18
38 9 10 14 18 11 18 -3 0 -13 -9 -22 -19z"/>
<path d="M4149 4473 c18 -24 37 -43 43 -43 6 0 2 8 -8 18 -11 9 -30 28 -43 42
-14 14 -10 6 8 -17z"/>
<path d="M3180 5860 c-23 -14 -20 -370 4 -505 40 -223 132 -459 249 -638 193
-296 515 -567 923 -777 l136 -70 91 46 c311 158 613 386 795 599 296 346 429
735 408 1188 -4 76 -9 144 -13 152 -4 12 -25 15 -93 15 -88 0 -89 0 -103 -30
l-15 -29 52 -3 51 -3 3 -135 c3 -165 -19 -366 -53 -486 -33 -112 -115 -282
-193 -399 -131 -198 -350 -403 -622 -585 -131 -87 -291 -180 -310 -180 -20 0
-203 99 -305 165 -398 257 -664 560 -803 915 -47 118 -92 409 -92 587 l0 112
33 5 c17 3 45 7 61 8 l28 3 -22 28 c-20 26 -25 27 -108 27 -48 0 -94 -5 -102
-10z"/>
<path d="M6244 5855 c-165 -36 -275 -140 -315 -298 -15 -61 -8 -173 14 -216
24 -47 22 -51 -22 -51 -45 0 -39 16 -103 -245 -20 -77 -39 -149 -43 -159 -8
-18 -5 -19 31 -12 21 3 140 11 264 16 124 5 249 12 279 16 33 3 51 2 47 -4 -3
-5 -29 -12 -58 -16 -257 -34 -577 -145 -713 -249 -56 -42 -125 -107 -114 -107
3 0 58 18 123 40 128 44 374 117 501 149 271 69 711 151 965 181 52 6 102 13
110 15 19 6 448 41 695 57 256 17 1981 17 2330 0 138 -7 349 -17 470 -22 121
-6 375 -21 565 -35 190 -13 386 -27 435 -30 50 -4 134 -13 189 -21 54 -7 102
-11 107 -8 5 3 9 13 9 23 0 9 18 118 41 242 69 379 49 451 -145 512 -62 19
-91 22 -231 21 -88 -1 -173 -6 -190 -11 -23 -7 -44 -5 -90 11 -52 17 -92 20
-304 24 -219 3 -245 2 -253 -13 -9 -15 -12 -15 -33 -1 -13 9 -66 23 -117 32
-79 14 -106 15 -180 4 -48 -6 -98 -8 -110 -4 -13 5 -142 8 -288 9 l-264 0 -16
80 -15 80 -228 3 c-146 1 -235 -1 -247 -8 -11 -6 -39 -40 -61 -76 l-41 -65
-167 6 c-133 5 -181 4 -239 -9 -40 -9 -76 -16 -79 -16 -3 0 -3 24 1 53 3 28 7
63 9 77 l2 25 -180 3 c-216 3 -234 -3 -278 -85 l-28 -53 -218 0 -219 0 -12
-30 c-7 -16 -14 -30 -15 -30 -1 0 -24 12 -51 27 -43 24 -61 27 -164 31 -126 4
-218 -11 -291 -49 l-41 -21 -62 29 c-61 28 -62 28 -243 26 -141 -2 -183 0
-183 10 1 6 7 41 15 77 7 35 11 68 9 72 -9 14 -493 8 -560 -7z m382 -107 c-3
-13 -11 -49 -17 -82 l-12 -58 -126 6 c-110 6 -130 5 -161 -11 -42 -21 -51 -56
-21 -73 12 -6 59 -18 106 -26 97 -18 142 -44 168 -94 37 -71 -5 -217 -79 -278
-93 -77 -189 -102 -387 -102 -136 0 -148 1 -144 18 3 9 13 49 22 89 l17 72
111 -5 c143 -7 207 8 222 49 13 39 -5 51 -96 66 -137 22 -190 70 -188 171 2
135 94 242 233 270 22 4 112 8 200 9 l158 1 -6 -22z m3118 -163 c22 -153 66
-470 66 -484 0 -1 -46 -1 -102 1 l-103 4 -6 30 c-4 16 -7 46 -8 67 l-1 37
-109 0 c-121 0 -120 1 -148 -75 l-19 -50 -102 -3 c-56 -1 -102 0 -102 2 0 22
71 182 177 399 l126 257 152 0 151 0 28 -185z m-1124 168 c0 -5 -7 -33 -15
-63 -8 -30 -15 -56 -15 -57 0 -2 25 -3 56 -3 55 0 56 -1 50 -25 -4 -14 -9 -45
-13 -70 l-6 -45 -58 0 -58 0 -10 -37 c-18 -71 -34 -190 -28 -206 5 -13 19 -17
52 -17 51 0 49 7 24 -91 l-9 -36 -73 -5 c-148 -9 -198 7 -214 70 -4 16 4 79
20 160 15 73 28 138 30 145 1 7 -13 13 -36 15 -28 2 -37 7 -33 17 2 7 8 31 12
52 11 60 21 73 58 73 32 0 33 2 51 65 l17 65 99 0 c54 0 99 -3 99 -7z m557
-127 c2 -2 -27 -139 -31 -143 -2 -2 -46 2 -99 9 -108 13 -152 6 -152 -27 0
-20 10 -23 134 -42 52 -7 101 -61 101 -109 0 -93 -71 -178 -170 -205 -44 -12
-305 -17 -316 -6 -3 3 -1 22 4 43 6 22 12 50 16 64 l5 25 119 -3 c98 -3 120
-1 131 12 7 9 11 22 8 30 -6 14 -25 20 -111 31 -38 5 -58 15 -83 40 -28 28
-33 40 -33 82 1 112 68 182 200 207 21 4 271 -3 277 -8z m-1502 -7 c98 -27
142 -100 132 -219 -8 -96 -47 -179 -109 -235 -68 -61 -128 -80 -258 -80 -92 0
-110 3 -147 25 -55 30 -83 86 -83 161 0 173 100 313 247 348 54 13 171 13 218
0z m595 -26 c-5 -21 -13 -64 -20 -95 l-11 -58 -64 0 c-94 0 -99 -6 -133 -185
l-29 -150 -110 -3 -109 -3 38 188 c21 103 45 221 54 261 l15 72 96 0 96 0 -7
-42 -6 -43 27 32 c37 42 79 62 129 63 l42 0 -8 -37z m-1131 -3 c69 -35 86
-113 52 -252 -20 -85 -66 -166 -116 -204 -73 -55 -180 -68 -254 -30 -35 19
-33 22 -51 -92 -7 -40 -17 -75 -24 -77 -6 -2 -54 -6 -106 -9 l-96 -6 68 332
c37 183 67 336 68 341 0 4 43 7 95 7 l95 0 -7 -32 -6 -33 24 22 c60 55 185 71
258 33z m2995 -22 c-6 -37 -5 -41 7 -26 31 38 92 68 135 68 24 0 44 -3 44 -6
0 -4 -9 -41 -21 -83 l-21 -76 -63 0 c-89 0 -98 -11 -131 -154 -14 -64 -30
-133 -36 -153 l-9 -38 -101 0 c-99 0 -100 0 -95 23 2 12 26 127 53 254 l49
233 98 0 97 0 -6 -42z m566 31 c101 -22 136 -93 116 -235 l-11 -79 -177 1
-178 2 0 -28 c0 -60 61 -78 215 -62 50 5 91 9 92 8 0 -1 -4 -25 -9 -54 -14
-70 -28 -75 -203 -76 -123 -1 -146 2 -187 21 -25 11 -54 33 -64 48 -26 39 -29
121 -9 212 31 138 80 206 172 239 46 16 174 18 243 3z m397 -39 c-4 -16 -5
-30 -3 -30 2 0 24 12 50 26 42 23 55 26 127 22 74 -3 83 -6 105 -31 34 -40 32
-96 -12 -312 l-36 -180 -89 3 c-49 2 -89 5 -89 7 0 2 16 80 35 174 19 93 35
172 35 175 0 2 -7 12 -16 20 -18 19 -63 21 -98 5 -30 -14 -37 -33 -71 -199
-14 -69 -27 -135 -30 -147 -5 -22 -10 -23 -101 -23 -86 0 -95 2 -90 18 3 9 26
116 51 237 25 121 47 230 50 243 5 21 10 22 96 22 l92 0 -6 -30z m755 -10
c107 -31 117 -84 63 -345 -20 -99 -38 -182 -40 -184 -2 -2 -36 0 -74 4 -70 7
-71 7 -71 36 l0 29 -42 -27 c-38 -25 -52 -28 -123 -28 -93 1 -136 18 -155 65
-28 67 17 198 80 235 36 20 138 27 235 15 40 -5 40 -5 40 30 0 53 -27 62 -161
56 l-110 -5 11 54 c5 29 13 57 17 60 24 24 252 27 330 5z"/>
<path d="M9493 5506 c-29 -68 -53 -128 -53 -135 0 -7 25 -11 71 -11 l72 0 -7
32 c-4 18 -9 79 -13 135 -3 57 -9 103 -12 103 -3 0 -30 -56 -58 -124z"/>
<path d="M7515 5493 c-33 -8 -53 -33 -75 -90 -24 -65 -26 -145 -4 -167 45 -46
121 3 148 94 24 79 21 135 -6 154 -23 16 -29 17 -63 9z"/>
<path d="M6890 5457 c-34 -17 -57 -67 -66 -143 -8 -75 3 -94 52 -94 44 0 79
33 98 93 39 118 0 186 -84 144z"/>
<path d="M10527 5479 c-17 -10 -53 -77 -45 -84 2 -2 39 -5 83 -6 l80 -4 3 38
c2 21 -2 45 -9 53 -14 16 -85 18 -112 3z"/>
<path d="M11574 5226 c-8 -14 -14 -35 -12 -48 3 -21 8 -23 79 -26 83 -3 94 3
105 55 7 36 -8 43 -98 43 -50 0 -60 -3 -74 -24z"/>
<path d="M5518 5813 c7 -3 16 -2 19 1 4 3 -2 6 -13 5 -11 0 -14 -3 -6 -6z"/>
<path d="M5533 5753 c9 -2 25 -2 35 0 9 3 1 5 -18 5 -19 0 -27 -2 -17 -5z"/>
<path d="M5565 5680 c3 -5 8 -10 11 -10 2 0 4 5 4 10 0 6 -5 10 -11 10 -5 0
-7 -4 -4 -10z"/>
<path d="M9115 4929 c-427 -12 -911 -50 -1240 -95 -99 -13 -211 -29 -250 -34
-38 -5 -88 -12 -110 -15 -74 -11 -379 -66 -470 -85 -49 -10 -128 -26 -175 -35
-202 -39 -619 -151 -950 -255 -225 -71 -610 -215 -722 -270 -49 -23 -79 -33
-82 -26 -3 7 -5 7 -5 -1 -1 -7 -26 -24 -57 -38 -31 -14 -54 -28 -51 -31 3 -3
14 -1 24 4 53 28 649 207 968 291 318 84 855 208 1065 245 47 8 123 22 170 31
156 29 630 98 750 109 30 3 114 12 185 20 72 8 249 24 395 35 682 52 969 62
2100 69 558 3 965 9 915 13 -85 7 -248 17 -665 39 -553 29 -1369 42 -1795 29z"/>
<path d="M8133 4903 c15 -2 37 -2 50 0 12 2 0 4 -28 4 -27 0 -38 -2 -22 -4z"/>
<path d="M7998 4893 c18 -2 45 -2 60 0 15 2 0 4 -33 4 -33 0 -45 -2 -27 -4z"/>
<path d="M7858 4883 c12 -2 32 -2 45 0 12 2 2 4 -23 4 -25 0 -35 -2 -22 -4z"/>
<path d="M7738 4873 c7 -3 16 -2 19 1 4 3 -2 6 -13 5 -11 0 -14 -3 -6 -6z"/>
<path d="M7570 4860 l-55 -7 50 -1 c28 0 68 3 90 7 l40 9 -35 -1 c-19 0 -60
-3 -90 -7z"/>
<path d="M7350 4836 c-47 -6 -80 -14 -75 -17 6 -4 62 1 125 11 126 19 87 24
-50 6z"/>
<path d="M7160 4810 c-27 -6 -29 -8 -10 -8 14 -1 43 3 65 7 33 7 35 9 10 9
-16 -1 -46 -4 -65 -8z"/>
<path d="M7088 4793 c6 -2 18 -2 25 0 6 3 1 5 -13 5 -14 0 -19 -2 -12 -5z"/>
<path d="M6990 4780 c-17 -6 -9 -7 25 -3 28 3 52 7 54 9 8 7 -54 2 -79 -6z"/>
<path d="M6865 4758 c-219 -41 -788 -189 -753 -196 9 -2 58 11 109 27 135 44
534 141 664 161 70 11 98 21 54 19 -13 -1 -46 -5 -74 -11z"/>
<path d="M5972 4523 c-57 -19 -101 -37 -99 -39 2 -2 37 7 78 21 41 14 85 27
98 30 23 4 55 26 36 24 -6 0 -56 -16 -113 -36z"/>
<path d="M5740 4436 c-52 -23 -134 -60 -183 -81 -61 -27 -84 -41 -75 -48 9 -6
8 -7 -5 -3 -10 3 -54 -15 -109 -44 -50 -28 -95 -50 -99 -50 -4 0 -10 -4 -14
-9 -3 -5 25 -1 62 10 37 10 69 19 70 19 2 0 3 7 3 16 0 9 5 12 12 8 7 -5 8 -3
3 6 -6 10 -1 12 21 7 20 -3 52 4 99 24 39 17 61 28 50 26 -11 -3 -28 -8 -37
-12 -10 -4 -18 -3 -18 2 0 5 16 15 35 22 19 7 35 17 35 22 0 5 11 9 24 9 13 0
26 4 28 9 2 5 10 11 18 13 8 2 17 6 20 9 8 8 98 49 110 49 5 0 24 9 42 20 54
33 9 21 -92 -24z"/>
<path d="M5144 4134 c-18 -14 -18 -15 4 -4 12 6 22 13 22 15 0 8 -5 6 -26 -11z"/>
</g>
</svg>
